<svg version="1.1" viewBox="0.0 0.0 496.40419947506564 474.2230971128609" fill="none" stroke="none" stroke-linecap="square" stroke-miterlimit="10" xmlns:xlink="http://www.w3.org/1999/xlink" xmlns="http://www.w3.org/2000/svg"><clipPath id="p.0"><path d="m0 0l496.4042 0l0 474.22308l-496.4042 0l0 -474.22308z" clip-rule="nonzero"/></clipPath><g clip-path="url(#p.0)"><path fill="#000000" fill-opacity="0.0" d="m0 0l496.4042 0l0 474.22308l-496.4042 0z" fill-rule="evenodd"/><path fill="#00ffff" d="m180.4357 238.91602l0 0c0 -35.56366 29.880585 -64.39371 66.74016 -64.39371l0 0c17.700577 0 34.676193 6.784317 47.19243 18.860474c12.516205 12.076172 19.54773 28.454956 19.54773 45.533234l0 0c0 35.56366 -29.880585 64.39371 -66.74016 64.39371l0 0c-36.859573 0 -66.74016 -28.830048 -66.74016 -64.39371zm32.196854 0c0 17.78183 15.465561 32.19684 34.543304 32.19684c19.077744 0 34.54329 -14.415009 34.54329 -32.19684l0 0c0 -17.78183 -15.465546 -32.196854 -34.54329 -32.196854l0 0c-19.077744 0 -34.543304 14.415024 -34.543304 32.196854z" fill-rule="evenodd"/><path fill="#21cdd9" d="m362.87665 238.91602l0 0c0 -29.38852 24.465698 -53.2126 54.64566 -53.2126l0 0c14.49292 0 28.392273 5.606308 38.64032 15.585602c10.248047 9.979309 16.00534 23.51413 16.00534 37.627l0 0c0 29.388489 -24.465698 53.212585 -54.64566 53.212585l0 0c-30.179962 0 -54.64566 -23.824097 -54.64566 -53.212585zm26.606293 0c0 14.694244 12.55365 26.606293 28.039368 26.606293c15.485718 0 28.039368 -11.912048 28.039368 -26.606293c0 -14.69426 -12.55365 -26.606308 -28.039368 -26.606308l0 0c-15.485718 0 -28.039368 11.912048 -28.039368 26.606308z" fill-rule="evenodd"/><path fill="#21cdd9" d="m329.12335 224.35432l44.094482 0l0 35.11812l-44.094482 0z" fill-rule="evenodd"/><path fill="#21cdd9" d="m131.47507 238.91602l0 0c0 29.388489 -24.465698 53.212585 -54.645668 53.212585l0 0c-14.492935 0 -28.392277 -5.6062927 -38.640327 -15.585602c-10.248049 -9.979309 -16.005344 -23.51413 -16.005344 -37.626984l0 0c0 -29.38852 24.465698 -53.2126 54.64567 -53.2126l0 0c30.17997 0 54.645668 23.824081 54.645668 53.2126zm-26.6063 0c0 -14.69426 -12.553658 -26.606308 -28.039368 -26.606308c-15.485718 0 -28.039371 11.912048 -28.039371 26.606308c0 14.694244 12.553654 26.606293 28.039371 26.606293l0 0c15.48571 0 28.039368 -11.912048 28.039368 -26.606293z" fill-rule="evenodd"/><path fill="#21cdd9" d="m165.22835 253.47769l-44.09449 0l0 -35.11812l44.09449 0z" fill-rule="evenodd"/><path fill="#21cdd9" d="m247.17586 127.02362l0 0c-29.388504 0 -53.2126 -24.465698 -53.2126 -54.645668l0 0c0 -14.492931 5.606308 -28.392273 15.585602 -38.640324c9.979309 -10.248051 23.51413 -16.005346 37.627 -16.005346l0 0c29.388504 0 53.2126 24.4657 53.2126 54.645668l0 0c0 30.17997 -23.824097 54.645668 -53.2126 54.645668zm0 -26.6063c14.69426 0 26.606308 -12.55365 26.606308 -28.039368c0 -15.485718 -11.912048 -28.039371 -26.606308 -28.039371c-14.69426 0 -26.606308 12.553654 -26.606308 28.039371l0 0c0 15.485718 11.912048 28.039368 26.606308 28.039368z" fill-rule="evenodd"/><path fill="#21cdd9" d="m232.61417 160.7769l0 -44.09449l35.118103 0l0 44.09449z" fill-rule="evenodd"/><path fill="#21cdd9" d="m247.17586 350.8084l0 0c-29.388504 0 -53.2126 24.465698 -53.2126 54.64566l0 0c0 14.49292 5.606308 28.392273 15.585602 38.64032c9.979309 10.248047 23.51413 16.00534 37.627 16.00534l0 0c29.388504 0 53.2126 -24.465698 53.2126 -54.64566l0 0c0 -30.179962 -23.824097 -54.64566 -53.2126 -54.64566zm0 26.606293c14.69426 0 26.606308 12.55365 26.606308 28.039368c0 15.485718 -11.912048 28.039368 -26.606308 28.039368c-14.69426 0 -26.606308 -12.55365 -26.606308 -28.039368l0 0c0 -15.485718 11.912048 -28.039368 26.606308 -28.039368z" fill-rule="evenodd"/><path fill="#21cdd9" d="m232.61417 317.0551l0 44.094482l35.118103 0l0 -44.094482z" fill-rule="evenodd"/><path fill="#21cdd9" d="m378.76257 364.11905l0 0c20.778076 -20.778107 54.924286 -20.319794 76.2677 1.0236206l0 0c10.249481 10.249451 16.115417 24.042877 16.307373 38.345856c0.19198608 14.302948 -5.3057556 27.943848 -15.283752 37.921844l0 0c-20.778076 20.778076 -54.924286 20.319794 -76.2677 -1.0236206l0 0c-21.343414 -21.343414 -21.801727 -55.489624 -1.0236206 -76.2677zm18.811005 18.811005c-10.389038 10.389038 -9.930756 27.691315 1.0236206 38.64566c10.954376 10.954376 28.256622 11.412689 38.64569 1.0236511l0 0c10.389038 -10.389069 9.930725 -27.691315 -1.0236206 -38.64569l0 0c-10.954376 -10.954376 -28.256653 -11.412659 -38.64569 -1.0236206z" fill-rule="evenodd"/><path fill="#21cdd9" d="m326.55676 291.33084l69.82675 69.82678l-24.818878 24.818909l-69.82678 -69.82678z" fill-rule="evenodd"/><path fill="#21cdd9" d="m114.90114 364.11905l0 0c-20.778084 -20.778107 -54.924305 -20.319794 -76.267715 1.0236206l0 0c-10.24947 10.249451 -16.115408 24.042877 -16.307373 38.345856c-0.19196701 14.302948 5.3057613 27.943848 15.283749 37.921844l0 0c20.778084 20.778076 54.924305 20.319794 76.267715 -1.0236206l0 0c21.343414 -21.343414 21.801697 -55.489624 1.0236206 -76.2677zm-18.811028 18.811005c10.389046 10.389038 9.930756 27.691315 -1.0236206 38.64566c-10.954369 10.954376 -28.256622 11.412689 -38.645668 1.0236511l0 0c-10.389042 -10.389069 -9.930748 -27.691315 1.0236244 -38.64569l0 0c10.954372 -10.954376 28.256626 -11.412659 38.645664 -1.0236206z" fill-rule="evenodd"/><path fill="#21cdd9" d="m167.10695 291.33084l-69.826775 69.82678l24.818893 24.818909l69.826775 -69.82678z" fill-rule="evenodd"/><path fill="#21cdd9" d="m378.76257 114.9111l0 0c20.778076 20.778091 54.924286 20.319794 76.2677 -1.0236206l0 0c10.249481 -10.249466 16.115417 -24.042885 16.307373 -38.345856c0.19198608 -14.302971 -5.3057556 -27.94387 -15.283752 -37.92186l0 0c-20.778076 -20.778082 -54.924286 -20.31979 -76.2677 1.0236244l0 0c-21.343414 21.343414 -21.801727 55.489635 -1.0236206 76.267715zm18.811005 -18.81102c-10.389038 -10.389038 -9.930756 -27.6913 1.0236206 -38.645668c10.954376 -10.954372 28.256622 -11.412666 38.64569 -1.0236244l0 0c10.389038 10.389042 9.930725 27.691296 -1.0236206 38.64567l0 0c-10.954376 10.954369 -28.256653 11.412659 -38.64569 1.0236206z" fill-rule="evenodd"/><path fill="#21cdd9" d="m326.55676 187.6993l69.82675 -69.826775l-24.818878 -24.818893l-69.82678 69.826775z" fill-rule="evenodd"/><path fill="#21cdd9" d="m114.9103 114.90195l0 0c20.778084 -20.778084 20.319786 -54.924305 -1.0236206 -76.267715l0 0c-10.249474 -10.24947 -24.042885 -16.115406 -38.345863 -16.307373c-14.302967 -0.19196701 -27.943867 5.3057632 -37.921856 15.283752l0 0c-20.778084 20.77808 -20.319792 54.924297 1.0236206 76.267715l0 0c21.343414 21.343422 55.489635 21.801704 76.267715 1.0236282zm-18.811028 -18.811028c-10.389038 10.389046 -27.691292 9.930748 -38.645668 -1.0236206c-10.954372 -10.954376 -11.4126625 -28.25663 -1.0236206 -38.64567l0 0c10.389038 -10.389038 27.6913 -9.930748 38.645668 1.0236244l0 0c10.954376 10.954369 11.412666 28.25663 1.0236206 38.645668z" fill-rule="evenodd"/><path fill="#21cdd9" d="m187.69849 167.10776l-69.82677 -69.82678l-24.818901 24.818901l69.826775 69.826775z" fill-rule="evenodd"/></g></svg>